<svg xmlns="http://www.w3.org/2000/svg" xmlns:xlink="http://www.w3.org/1999/xlink" width="24" height="24" viewBox="0 0 24 24">
  <defs>
    <path id="studybuddy-notification-icon-a" d="M21.6046468,21.1939852 C21.2400511,21.6831834 20.6570238,22 20,22 L4,22 C2.8954305,22 2,21.1045695 2,20 L2,4 C2,3.34297622 2.31681663,2.75994892 2.80601479,2.39535322 L21.6046468,21.1939852 Z"/>
  </defs>
  <g fill="none" fill-rule="evenodd">
    <rect width="19" height="19" x="2.5" y="2.5" stroke="#979797" rx="2"/>
    <mask id="studybuddy-notification-icon-b" fill="#fff">
      <use xlink:href="#studybuddy-notification-icon-a"/>
    </mask>
    <path stroke="#7B1FA2" d="M20.9022222,21.1986674 L2.80133262,3.09777783 C2.60877824,3.35311662 2.5,3.66728397 2.5,4 L2.5,20 C2.5,20.8284271 3.17157288,21.5 4,21.5 L20,21.5 C20.332716,21.5 20.6468834,21.3912218 20.9022222,21.1986674 Z"/>
    <g mask="url(#studybuddy-notification-icon-b)">
      <g transform="translate(5 12)">
        <rect width="7" height="7"/>
        <path fill="#000" fill-rule="nonzero" d="M3.5,1 C4.19035594,1 4.75,1.55964406 4.75,2.25 C4.75,2.94035594 4.19035594,3.5 3.5,3.5 C2.80964406,3.5 2.25,2.94035594 2.25,2.25 C2.25,1.55964406 2.80964406,1 3.5,1 Z M3.5,4.125 C4.88125,4.125 6,4.684375 6,5.375 L6,6 L1,6 L1,5.375 C1,4.684375 2.11875,4.125 3.5,4.125 Z"/>
      </g>
    </g>
    <g mask="url(#studybuddy-notification-icon-b)">
      <g transform="translate(12 5)">
        <rect width="7" height="7"/>
        <path fill="#000" fill-rule="nonzero" d="M5.91876128,2.12276073 C6.02707957,2.01444244 6.02707957,1.83391196 5.91876128,1.73114845 L5.26885155,1.08123872 C5.16608804,0.972920428 4.98555756,0.972920428 4.87723927,1.08123872 L4.36619914,1.58950146 L5.40772115,2.63102347 L5.91876128,2.12276073 Z M1,4.95847799 L1,6 L2.04152201,6 L5.11331759,2.92542702 L4.07179558,1.88390501 L1,4.95847799 Z"/>
      </g>
    </g>
  </g>
</svg>
